<?xml version="1.0" encoding="UTF-8"?>
<svg id="Layer_1" xmlns="http://www.w3.org/2000/svg" version="1.1" viewBox="0 0 512 512">
  <!-- Generator: Adobe Illustrator 29.6.1, SVG Export Plug-In . SVG Version: 2.1.1 Build 9)  -->
  <defs>
    <style>
      .st0 {
        fill: #f38321;
      }
    </style>
  </defs>
  <path class="st0" d="M288,448H64v-224h64v-64h-64C28.7,160,0,188.7,0,224v224c0,35.3,28.7,64,64,64h224c35.3,0,64-28.7,64-64v-64h-64v64ZM224,352h224c35.3,0,64-28.7,64-64V64c0-35.3-28.7-64-64-64h-224c-35.3,0-64,28.7-64,64v224c0,35.3,28.7,64,64,64Z"/>
</svg>