<?xml version="1.0" encoding="UTF-8"?>
<svg id="Layer_1" xmlns="http://www.w3.org/2000/svg" version="1.1" viewBox="0 0 448 512">
  <!-- Generator: Adobe Illustrator 29.6.1, SVG Export Plug-In . SVG Version: 2.1.1 Build 9)  -->
  <defs>
    <style>
      .st0 {
        fill: #f38321;
      }
    </style>
  </defs>
  <path class="st0" d="M224,64c-44.2,0-80,35.8-80,80v48h240c35.3,0,64,28.7,64,64v192c0,35.3-28.7,64-64,64H64c-35.3,0-64-28.7-64-64v-192c0-35.3,28.7-64,64-64h16v-48C80,64.5,144.5,0,224,0s107,33.7,130.1,82.3c7.6,16,.8,35.1-15.2,42.6-16,7.5-35.1.8-42.6-15.2-12.9-27.1-40.4-45.7-72.3-45.7ZM256,384c17.7,0,32-14.3,32-32s-14.3-32-32-32h-64c-17.7,0-32,14.3-32,32s14.3,32,32,32h64Z"/>
</svg>